#!OML:ASF F:\VICON\USERDATA\INSTALL\rory3\rory3.ASF
:FULLY-SPECIFIED
:DEGREES
1
root -0.284179 18.9638 -13.2324 3.19402 -3.69896 1.73596
lowerback 2.54461 0.67863 -3.22818
upperback -0.722909 0.771589 -1.13021
thorax -2.19691 0.4203 0.614533
lowerneck -9.20907 -5.91748 -9.71248
upperneck 14.799 -7.83228 7.77645
head 6.71239 -3.73843 3.39121
rclavicle -8.4732e-015 9.14409e-015
rhumerus -35.0965 1.29719 -83.0992
rradius 29.595
rwrist 16.4229
rhand -23.9124 3.13471
rfingers 7.12502
rthumb 2.562 -26.8296
lclavicle -8.4732e-015 9.14409e-015
lhumerus -36.7973 17.2485 73.864
lradius 24.3138
lwrist -5.60428
lhand -18.0051 25.8769
lfingers 7.12502
lthumb 8.26545 55.6952
rfemur -3.50833 21.0443 18.4397
rtibia 15.2979
rfoot -13.627 -19.1965
rtoes -2.11293
lfemur -0.783897 -9.53216 -20.8987
ltibia 8.47471
lfoot -9.22452 14.9772
ltoes -6.01129
2
root -0.283049 18.9646 -13.2281 3.1957 -3.78939 1.72976
lowerback 2.49072 0.712216 -3.19356
upperback -0.696959 0.820334 -1.14324
thorax -2.14089 0.443133 0.580539
lowerneck -9.19313 -5.92323 -9.68089
upperneck 14.7246 -7.837 7.7465
head 6.6838 -3.74167 3.37623
rclavicle -2.28602e-015 2.74323e-014
rhumerus -35.0401 1.16877 -83.0136
rradius 29.6378
rwrist 16.9081
rhand -22.1794 1.33363
rfingers 7.12502
rthumb 4.23554 -28.604
lclavicle -2.28602e-015 2.74323e-014
lhumerus -36.7896 17.1151 73.9472
lradius 24.3911
lwrist -5.49297
lhand -18.0758 25.8848
lfingers 7.12502
lthumb 8.19718 55.7058
rfemur -3.53703 21.0626 18.4329
rtibia 15.38
rfoot -13.6975 -19.1038
rtoes -1.94877
lfemur -0.706169 -9.44213 -20.9176
ltibia 8.37461
lfoot -9.21207 14.9766
ltoes -5.94498
3
root -0.284546 18.9636 -13.2286 3.1593 -3.822 1.72877
lowerback 2.56891 0.720254 -3.20631
upperback -0.67526 0.827798 -1.14278
thorax -2.16298 0.447085 0.586974
lowerneck -9.29327 -5.9434 -9.62225
upperneck 14.725 -7.85178 7.66951
head 6.69737 -3.74896 3.33762
rclavicle 6.88292e-015 -2.3059e-014
rhumerus -35.0027 1.20198 -83.0134
rradius 29.6852
rwrist 17.0498
rhand -21.3218 0.311748
rfingers 7.12502
rthumb 5.06362 -29.6078
lclavicle 6.88292e-015 -2.3059e-014
lhumerus -36.755 17.2307 73.91
lradius 24.3196
lwrist -5.61704
lhand -18.2097 25.5463
lfingers 7.12502
lthumb 8.06794 55.3723
rfemur -3.52727 21.0579 18.4497
rtibia 15.4282
rfoot -13.7271 -19.069
rtoes -2.10792
lfemur -0.648444 -9.4088 -20.9195
ltibia 8.33279
lfoot -9.19337 14.9769
ltoes -5.94407
4
root -0.28647 18.9629 -13.2299 3.10258 -3.90349 1.72981
lowerback 2.67623 0.757883 -3.22182
upperback -0.659308 0.872968 -1.15025
thorax -2.20857 0.470162 0.584582
lowerneck -9.37443 -5.9691 -9.56293
upperneck 14.7602 -7.87883 7.59697
head 6.71993 -3.76223 3.29957
rclavicle -1.01877e-014 -6.75868e-015
rhumerus -34.9503 1.22146 -83.028
rradius 29.5833
rwrist 16.9685
rhand -21.553 0.396333
rfingers 7.12502
rthumb 4.84038 -29.5284
lclavicle -1.01877e-014 -6.75868e-015
lhumerus -36.7251 17.2486 73.9025
lradius 24.2921
lwrist -5.60755
lhand -18.1585 25.503
lfingers 7.12502
lthumb 8.11732 55.3271
rfemur -3.52329 21.0616 18.4695
rtibia 15.5045
rfoot -13.7283 -19.015
rtoes -2.38147
lfemur -0.527027 -9.32652 -20.932
ltibia 8.2388
lfoot -9.15188 14.9953
ltoes -5.88241
5
root -0.287469 18.9629 -13.2296 3.12186 -3.95273 1.72768
lowerback 2.65789 0.772143 -3.20928
upperback -0.644824 0.893398 -1.16082
thorax -2.18369 0.479674 0.566168
lowerneck -9.35738 -5.96643 -9.58002
upperneck 14.7353 -7.87576 7.61643
head 6.7102 -3.76063 3.30941
rclavicle 2.82026e-014 3.18055e-015
rhumerus -34.9407 1.17413 -83.0127
rradius 29.6057
rwrist 17.006
rhand -21.4467 0.23339
rfingers 7.12502
rthumb 4.94301 -29.689
lclavicle 2.82026e-014 3.18055e-015
lhumerus -36.7101 17.3301 73.8485
lradius 24.2856
lwrist -5.80787
lhand -18.0296 25.7093
lfingers 7.12502
lthumb 8.24174 55.5285
rfemur -3.59238 21.0893 18.4621
rtibia 15.576
rfoot -13.7199 -18.9941
rtoes -2.43579
lfemur -0.500377 -9.27755 -20.929
ltibia 8.15941
lfoot -9.12584 14.9784
ltoes -5.83776
